<svg width="268" height="69" viewBox="0 0 268 69" fill="none" xmlns="http://www.w3.org/2000/svg">
<path d="M2.24609 0.8125L21.2891 0.421875C36.0677 0.617188 43.457 0.942708 43.457 1.39844C43.457 1.59375 43.2617 1.69141 42.8711 1.69141V1.98438H43.0664C43.7174 1.33333 45.3451 0.845052 47.9492 0.519531L48.4375 0.421875C48.6328 0.942708 48.7305 1.36589 48.7305 1.69141C48.7305 5.40234 48.9258 8.65755 49.3164 11.457L47.4609 15.2656C46.6797 15.6562 45.931 15.8516 45.2148 15.8516C43.1315 15.8516 42.0898 15.2331 42.0898 13.9961V13.8008C42.2201 13.3451 42.5456 12.8242 43.0664 12.2383C42.4154 12.043 42.0898 11.4896 42.0898 10.5781C42.0898 9.40625 41.6016 8.82031 40.625 8.82031C40.625 8.29948 40.5599 8.03906 40.4297 8.03906H37.793V8.13672C37.793 8.33203 38.1836 8.52734 38.9648 8.72266V9.11328L38.1836 9.30859L26.1719 9.01562H19.9219C15.6901 9.01562 13.5742 9.27604 13.5742 9.79688C13.8997 9.79688 14.2578 15.9167 14.6484 28.1562C15.1042 28.612 15.4948 28.8398 15.8203 28.8398H16.5039L21.3867 28.5469L29.2969 29.5234C29.9479 29.5234 30.2734 28.5794 30.2734 26.6914C30.2734 25.8451 31.0872 25.2917 32.7148 25.0312L33.3984 24.543C34.2448 24.543 34.668 27.8958 34.668 34.6016V38.6055C34.668 39.1914 34.5052 39.5495 34.1797 39.6797C33.3984 39.2891 32.1289 38.931 30.3711 38.6055C30.1758 38.6055 29.8503 37.5964 29.3945 35.5781C29.3945 34.9271 26.888 34.6016 21.875 34.6016C17.2526 34.6016 14.9414 34.7969 14.9414 35.1875L14.8438 36.75L15.4297 46.7109C15.2995 50.487 15.0065 54.3607 14.5508 58.332L14.9414 58.5273C17.7409 58.332 21.3867 58.0065 25.8789 57.5508H25.9766C29.362 57.5508 34.0169 57.9089 39.9414 58.625H40.1367C40.6576 58.625 40.9505 58.2995 41.0156 57.6484H41.6016L42.5781 58.5273L42.6758 57.9414C42.6758 56.7695 42.4479 56.1836 41.9922 56.1836L41.3086 56.5742C40.6576 56.1185 40.1693 55.4023 39.8438 54.4258C39.8438 53.7096 41.0482 53.2214 43.457 52.9609C43.6523 52.9609 44.4661 53.3516 45.8984 54.1328C46.6146 54.1328 46.9727 54.8164 46.9727 56.1836C46.9727 60.7409 47.1354 64.4844 47.4609 67.4141L47.168 68.3906H46.6797C46.224 68 44.5312 67.707 41.6016 67.5117C41.6016 67.2513 30.0456 66.8932 6.93359 66.4375C5.5013 66.4375 4.78516 65.8516 4.78516 64.6797C4.52474 64.4193 4.39453 63.2474 4.39453 61.1641L4.78516 59.0156V58.0391L5.07812 57.6484H5.37109C5.95703 58.2344 6.44531 58.5273 6.83594 58.5273H7.12891C8.49609 58.2018 9.17969 57.7135 9.17969 57.0625L8.59375 34.9922C8.59375 34.5365 8.23568 33.6901 7.51953 32.4531C7.71484 32.4531 7.97526 26.2357 8.30078 13.8008C8.49609 13.4102 8.59375 12.7591 8.59375 11.8477V11.457C8.59375 9.69922 7.55208 8.82031 5.46875 8.82031L3.02734 8.13672L1.75781 8.33203C0.716146 8.33203 0.195312 6.86719 0.195312 3.9375L0.0976562 3.83984C0.16276 1.82161 0.846354 0.8125 2.14844 0.8125H2.24609ZM2.73438 1.88672H2.34375V1.98438L3.32031 3.44922C3.77604 2.79818 4.16667 2.47266 4.49219 2.47266L5.17578 2.57031L5.46875 2.47266C4.81771 2.08203 3.90625 1.88672 2.73438 1.88672ZM7.91016 2.47266C7.45443 2.53776 7.22656 2.66797 7.22656 2.86328C7.22656 3.05859 7.32422 3.15625 7.51953 3.15625L8.39844 2.86328V2.47266H7.91016ZM16.6992 2.57031H16.4062V2.76562H16.6992V2.57031ZM9.27734 2.96094L8.98438 3.44922V3.54688C9.11458 3.9375 9.47266 4.13281 10.0586 4.13281H11.2305V3.74219C10.3841 3.22135 9.76562 2.96094 9.375 2.96094H9.27734ZM14.0625 3.83984H13.5742V3.9375C13.7044 4.26302 13.9974 4.42578 14.4531 4.42578H14.9414V4.32812C14.8112 4.0026 14.5182 3.83984 14.0625 3.83984ZM39.5508 4.13281L36.0352 4.23047V4.42578L41.6016 5.10938C41.7969 5.04427 41.9596 4.84896 42.0898 4.52344V4.23047L39.5508 4.13281ZM17.9688 4.32812C17.9688 4.58854 18.5547 4.71875 19.7266 4.71875C19.7266 4.45833 19.1406 4.32812 17.9688 4.32812ZM13.3789 6.96484C13.5091 7.48568 13.8346 7.74609 14.3555 7.74609H14.4531C16.9922 7.68099 18.2617 7.42057 18.2617 6.96484C18.2617 6.57422 17.4479 6.37891 15.8203 6.37891H15.5273C14.0951 6.37891 13.3789 6.57422 13.3789 6.96484ZM21.4844 6.86719L21.2891 6.96484C21.3542 7.22526 21.582 7.35547 21.9727 7.35547H22.0703C22.526 7.35547 22.7865 7.22526 22.8516 6.96484L22.5586 6.86719H21.4844ZM7.91016 7.16016H5.66406V7.35547H7.91016V7.16016ZM43.457 10.8711V10.9688L43.75 11.2617C43.9453 11.2617 44.1081 10.9036 44.2383 10.1875L44.1406 9.50391H43.8477C43.5872 9.50391 43.457 9.95964 43.457 10.8711ZM45.5078 13.2148L45.7031 13.3125L45.9961 13.6055V13.7031C46.3867 13.7031 46.582 13.3451 46.582 12.6289V12.4336H46.1914C45.9961 12.5638 45.7682 12.8242 45.5078 13.2148ZM11.8164 12.8242L11.6211 13.2148V13.9961C11.7513 14.5169 12.0117 14.7773 12.4023 14.7773L12.5977 14.2891V14.1914C12.5977 13.4753 12.3372 13.0195 11.8164 12.8242ZM12.4023 17.707L11.8164 18.1953V18.8789L12.207 19.2695H12.5L12.6953 18.9766L12.4023 17.707ZM15.5273 30.3047L15.2344 30.6953V30.793H16.0156V30.5977L15.625 30.3047H15.5273ZM22.3633 31.2812H22.0703V31.5742L22.3633 31.7695H22.5586V31.5742L22.3633 31.2812ZM23.7305 31.5742H23.3398V31.7695H23.7305V31.5742ZM25 31.5742H24.5117L24.9023 31.9648H25.293V31.7695L25 31.5742ZM10.9375 38.0195H10.5469L10.3516 38.6055V39.4844H10.6445L10.9375 39.3867V38.0195ZM13.0859 45.6367H12.793V45.9297H13.0859V45.6367ZM12.9883 52.4727H12.6953L12.5977 53.0586V54.3281L12.6953 54.4258V54.5234C13.151 54.5234 13.3789 54.1654 13.3789 53.4492C13.3789 52.8633 13.2487 52.5378 12.9883 52.4727ZM44.5312 55.5L44.8242 55.793C45.1497 55.6628 45.3125 55.5326 45.3125 55.4023V55.207L45.1172 54.9141C44.7266 55.0443 44.5312 55.2396 44.5312 55.5ZM12.6953 60.1875H12.4023V60.4805H12.6953V60.1875ZM13.0859 61.0664L12.793 61.3594V61.457C12.8581 61.7174 13.2161 61.8477 13.8672 61.8477H14.3555L14.9414 61.6523V61.457C14.8763 61.1966 14.6484 61.0664 14.2578 61.0664H13.0859ZM20.5078 61.457H19.5312V61.6523L19.7266 61.9453H20.1172L20.7031 61.8477V61.6523L20.5078 61.457ZM41.4062 61.457L41.0156 61.9453V62.043C41.0807 62.3034 41.3086 62.4336 41.6992 62.4336C42.3503 62.3685 42.6758 62.2057 42.6758 61.9453V61.8477L42.5781 61.457H41.4062ZM24.5117 61.8477H22.2656V62.043L24.5117 62.3359H30.2734C30.2734 62.0104 28.3529 61.8477 24.5117 61.8477ZM10.0586 62.2383L8.98438 62.3359V62.5312C9.11458 62.8568 9.375 63.0195 9.76562 63.0195H10.7422L11.0352 62.6289V62.5312C11.0352 62.3359 10.8073 62.2383 10.3516 62.2383H10.0586ZM34.9609 62.3359H33.9844V62.4336C33.9844 62.7591 35.5469 62.9544 38.6719 63.0195V62.8242C37.5 62.4987 36.263 62.3359 34.9609 62.3359ZM6.93359 63.9961H6.54297V64.7773L6.83594 64.9727H6.93359V63.9961ZM44.7266 64.0938H43.75V64.4844L44.8242 64.7773H45.1172L45.3125 64.4844V64.2891L44.7266 64.0938ZM35.8398 65.0703L36.8164 65.3633H37.6953C38.151 65.3633 38.4115 65.2331 38.4766 64.9727H38.2812L37.207 64.7773C36.2956 64.9076 35.8398 65.0052 35.8398 65.0703ZM28.3203 64.9727H27.7344V65.0703L27.9297 65.3633H29.3945V65.0703L28.3203 64.9727ZM20.6055 65.0703L20.2148 65.4609V65.7539H20.7031L20.8984 65.4609V65.3633L20.7031 65.0703H20.6055Z" fill="#EC09F0"/>
<path d="M57.954 14.0805C57.954 10.9004 58.8544 8.25671 60.6552 6.14943C62.6092 3.88889 65.1571 2.75862 68.2989 2.75862C70.9808 2.75862 73.0307 3.31418 74.4483 4.42529C74.8697 4.7318 75.0805 5.09579 75.0805 5.51724C75.0805 5.9387 74.9655 6.28353 74.7356 6.55172C74.5057 6.78161 74.2375 6.89655 73.931 6.89655C73.6245 6.89655 73.3946 6.83908 73.2414 6.72414C71.7854 5.88123 70.2529 5.47893 68.6437 5.51724C66.5364 5.51724 64.8889 6.30268 63.7011 7.87356C62.3602 9.48276 61.6897 11.5517 61.6897 14.0805C61.6897 16.4176 62.1686 18.3908 63.1264 20C64.2759 21.8391 66.1149 22.7586 68.6437 22.7586C70.023 22.7586 71.7088 22.2797 73.7011 21.3218C74.2375 21.0153 74.6973 21.092 75.0805 21.5517C75.3103 21.7816 75.4253 22.1073 75.4253 22.5287C75.4253 22.9119 75.1762 23.3142 74.6782 23.7356C74.1801 24.1188 73.5862 24.4253 72.8966 24.6552C71.2107 25.2299 69.5824 25.4981 68.0115 25.4598C66.4406 25.4598 65.023 25.1724 63.7586 24.5977C62.4943 24.023 61.4406 23.1801 60.5977 22.069C58.8352 19.9617 57.954 17.2989 57.954 14.0805ZM79.1368 14.1379C79.1368 12.7586 79.3475 11.3793 79.769 10C80.2287 8.62069 80.9184 7.37548 81.8379 6.26437C83.7536 3.9272 86.474 2.75862 89.9989 2.75862C93.5238 2.75862 96.2441 3.9272 98.1598 6.26437C99.9605 8.48659 100.861 11.092 100.861 14.0805C100.861 17.1073 99.9605 19.7126 98.1598 21.8966C96.2441 24.272 93.5238 25.4598 89.9989 25.4598C86.474 25.4598 83.7536 24.272 81.8379 21.8966C80.0372 19.751 79.1368 17.1648 79.1368 14.1379ZM82.8724 14.1379C82.8724 15.0575 82.9874 16.0345 83.2172 17.069C83.4854 18.1034 83.9452 19.0613 84.5966 19.9425C85.8992 21.8199 87.7 22.7586 89.9989 22.7586C92.4126 22.7586 94.2134 21.8199 95.4012 19.9425C96.5123 18.1801 97.0678 16.2261 97.0678 14.0805C97.0678 11.8582 96.5123 9.94253 95.4012 8.33333C94.1751 6.41762 92.3743 5.45977 89.9989 5.45977C87.7 5.45977 85.8992 6.41762 84.5966 8.33333C83.4471 9.90421 82.8724 11.8391 82.8724 14.1379ZM124.01 7.29885C125.849 4.27203 128.493 2.75862 131.941 2.75862C135.504 2.75862 137.88 4.25287 139.068 7.24138C139.489 8.35249 139.7 9.63601 139.7 11.092V23.3908C139.7 23.9272 139.508 24.3295 139.125 24.5977C138.78 24.8659 138.397 25 137.976 25C137.516 25 137.094 24.8659 136.711 24.5977C136.366 24.2912 136.194 23.8889 136.194 23.3908V10.8621C136.194 9.09962 135.696 7.72031 134.7 6.72414C133.78 5.88123 132.593 5.45977 131.137 5.45977C128.225 5.45977 126.252 6.64751 125.217 9.02299C124.796 9.90421 124.585 10.977 124.585 12.2414V23.3908C124.585 23.9272 124.393 24.3295 124.01 24.5977C123.665 24.8659 123.282 25 122.861 25C122.401 25 121.98 24.8659 121.596 24.5977C121.252 24.2912 121.079 23.8889 121.079 23.3908V10.8621C121.079 9.09962 120.6 7.72031 119.642 6.72414C118.723 5.88123 117.669 5.45977 116.481 5.45977C115.294 5.45977 114.317 5.59387 113.55 5.86207C112.784 6.13027 112.094 6.57088 111.481 7.18391C110.255 8.40996 109.604 10.1341 109.527 12.3563V23.3908C109.527 23.9272 109.336 24.3295 108.953 24.5977C108.57 24.8659 108.167 25 107.746 25C107.324 25 106.922 24.8659 106.539 24.5977C106.156 24.2912 105.964 23.8889 105.964 23.3908V4.82759C105.964 4.3295 106.156 3.9272 106.539 3.62069C106.922 3.31418 107.286 3.16092 107.631 3.16092C107.976 3.16092 108.244 3.21839 108.435 3.33333C108.627 3.40996 108.799 3.50575 108.953 3.62069C109.336 3.9272 109.527 4.31034 109.527 4.77012V6.83908C110.064 5.5364 111.041 4.52107 112.458 3.7931C113.723 3.10345 115.198 2.75862 116.884 2.75862C119.489 2.75862 121.481 3.58238 122.861 5.22988C123.321 5.84291 123.704 6.53257 124.01 7.29885ZM164.342 7.29885C166.181 4.27203 168.825 2.75862 172.273 2.75862C175.836 2.75862 178.212 4.25287 179.4 7.24138C179.821 8.35249 180.032 9.63601 180.032 11.092V23.3908C180.032 23.9272 179.84 24.3295 179.457 24.5977C179.112 24.8659 178.729 25 178.308 25C177.848 25 177.426 24.8659 177.043 24.5977C176.699 24.2912 176.526 23.8889 176.526 23.3908V10.8621C176.526 9.09962 176.028 7.72031 175.032 6.72414C174.112 5.88123 172.925 5.45977 171.469 5.45977C168.557 5.45977 166.584 6.64751 165.549 9.02299C165.128 9.90421 164.917 10.977 164.917 12.2414V23.3908C164.917 23.9272 164.725 24.3295 164.342 24.5977C163.997 24.8659 163.614 25 163.193 25C162.733 25 162.312 24.8659 161.928 24.5977C161.584 24.2912 161.411 23.8889 161.411 23.3908V10.8621C161.411 9.09962 160.932 7.72031 159.974 6.72414C159.055 5.88123 158.001 5.45977 156.813 5.45977C155.626 5.45977 154.649 5.59387 153.882 5.86207C153.116 6.13027 152.426 6.57088 151.813 7.18391C150.587 8.40996 149.936 10.1341 149.859 12.3563V23.3908C149.859 23.9272 149.668 24.3295 149.285 24.5977C148.902 24.8659 148.499 25 148.078 25C147.656 25 147.254 24.8659 146.871 24.5977C146.488 24.2912 146.296 23.8889 146.296 23.3908V4.82759C146.296 4.3295 146.488 3.9272 146.871 3.62069C147.254 3.31418 147.618 3.16092 147.963 3.16092C148.308 3.16092 148.576 3.21839 148.767 3.33333C148.959 3.40996 149.131 3.50575 149.285 3.62069C149.668 3.9272 149.859 4.31034 149.859 4.77012V6.83908C150.396 5.5364 151.373 4.52107 152.79 3.7931C154.055 3.10345 155.53 2.75862 157.216 2.75862C159.821 2.75862 161.813 3.58238 163.193 5.22988C163.653 5.84291 164.036 6.53257 164.342 7.29885ZM206.168 13.4483C206.168 14.2529 205.709 14.6935 204.789 14.7701H189.042C189.195 18.6782 190.728 21.2069 193.64 22.3563C194.444 22.6245 195.364 22.7586 196.398 22.7586C198.544 22.7586 200.728 21.9732 202.95 20.4023C203.64 20.0192 204.214 20.0575 204.674 20.5172C204.904 20.7471 204.981 20.977 204.904 21.2069C204.904 21.7433 204.77 22.1264 204.502 22.3563C202.395 24.4636 199.617 25.4981 196.168 25.4598C193.027 25.4598 190.498 24.4444 188.582 22.4138C186.437 20.3065 185.364 17.5287 185.364 14.0805C185.364 10.9004 186.245 8.27586 188.008 6.2069C189.847 3.90805 192.452 2.75862 195.824 2.75862C199.195 2.75862 201.762 3.77395 203.525 5.8046C205.211 7.64368 206.092 10.1916 206.168 13.4483ZM202.778 12.4138C202.663 10.3448 201.992 8.63985 200.766 7.29885C199.617 6.0728 197.969 5.45977 195.824 5.45977C193.985 5.45977 192.414 6.14943 191.111 7.52874C189.923 8.90805 189.272 10.5364 189.157 12.4138H202.778ZM214.996 6.83908C215.916 4.11877 217.927 2.75862 221.031 2.75862C221.605 2.75862 222.027 2.93103 222.295 3.27586C222.602 3.58238 222.755 3.9272 222.755 4.31035C222.755 4.65517 222.602 5 222.295 5.34483C222.027 5.65134 221.51 5.8046 220.743 5.8046C219.977 5.8046 219.211 5.95785 218.444 6.26437C217.678 6.57088 217.046 7.01149 216.548 7.58621C215.513 8.85057 214.996 10.5172 214.996 12.5862V23.3908C214.996 23.9272 214.805 24.3295 214.421 24.5977C214.038 24.8659 213.693 25 213.387 25C213.08 25 212.831 24.9808 212.64 24.9425C212.448 24.8659 212.257 24.7318 212.065 24.5402C211.72 24.3103 211.548 23.9272 211.548 23.3908V4.88506C211.548 4.38697 211.72 3.98467 212.065 3.67816C212.41 3.33333 212.831 3.16092 213.329 3.16092C213.866 3.16092 214.268 3.33333 214.536 3.67816C214.843 3.98467 214.996 4.38697 214.996 4.88506V6.83908ZM225.581 14.0805C225.581 10.9004 226.481 8.25671 228.282 6.14943C230.236 3.88889 232.784 2.75862 235.926 2.75862C238.608 2.75862 240.658 3.31418 242.075 4.42529C242.497 4.7318 242.707 5.09579 242.707 5.51724C242.707 5.9387 242.592 6.28353 242.363 6.55172C242.133 6.78161 241.865 6.89655 241.558 6.89655C241.251 6.89655 241.022 6.83908 240.868 6.72414C239.412 5.88123 237.88 5.47893 236.271 5.51724C234.163 5.51724 232.516 6.30268 231.328 7.87356C229.987 9.48276 229.317 11.5517 229.317 14.0805C229.317 16.4176 229.796 18.3908 230.753 20C231.903 21.8391 233.742 22.7586 236.271 22.7586C237.65 22.7586 239.336 22.2797 241.328 21.3218C241.865 21.0153 242.324 21.092 242.707 21.5517C242.937 21.7816 243.052 22.1073 243.052 22.5287C243.052 22.9119 242.803 23.3142 242.305 23.7356C241.807 24.1188 241.213 24.4253 240.524 24.6552C238.838 25.2299 237.209 25.4981 235.638 25.4598C234.068 25.4598 232.65 25.1724 231.386 24.5977C230.121 24.023 229.068 23.1801 228.225 22.069C226.462 19.9617 225.581 17.2989 225.581 14.0805ZM267.741 13.4483C267.741 14.2529 267.281 14.6935 266.361 14.7701H250.614C250.768 18.6782 252.3 21.2069 255.212 22.3563C256.017 22.6245 256.936 22.7586 257.971 22.7586C260.116 22.7586 262.3 21.9732 264.522 20.4023C265.212 20.0192 265.787 20.0575 266.246 20.5172C266.476 20.7471 266.553 20.977 266.476 21.2069C266.476 21.7433 266.342 22.1264 266.074 22.3563C263.967 24.4636 261.189 25.4981 257.741 25.4598C254.599 25.4598 252.07 24.4444 250.155 22.4138C248.009 20.3065 246.936 17.5287 246.936 14.0805C246.936 10.9004 247.817 8.27586 249.58 6.2069C251.419 3.90805 254.024 2.75862 257.396 2.75862C260.768 2.75862 263.335 3.77395 265.097 5.8046C266.783 7.64368 267.664 10.1916 267.741 13.4483ZM264.35 12.4138C264.235 10.3448 263.565 8.63985 262.338 7.29885C261.189 6.0728 259.542 5.45977 257.396 5.45977C255.557 5.45977 253.986 6.14943 252.683 7.52874C251.496 8.90805 250.844 10.5364 250.729 12.4138H264.35Z" fill="#020202"/>
<path d="M113.84 56.52C114.507 56.52 115.08 56.76 115.56 57.24C116.067 57.72 116.32 58.3067 116.32 59C116.32 59.6667 116.067 60.24 115.56 60.72C115.08 61.2 114.507 61.44 113.84 61.44C113.173 61.44 112.6 61.2 112.12 60.72C111.64 60.24 111.4 59.6667 111.4 59C111.4 58.3333 111.64 57.76 112.12 57.28C112.6 56.7733 113.173 56.52 113.84 56.52ZM137.607 46.88C137.607 47.3333 137.42 47.56 137.047 47.56C136.727 47.56 136.513 47.3333 136.407 46.88C136.007 45.4133 135.353 44.2533 134.447 43.4C133.54 42.5467 132.393 42.12 131.007 42.12C129.007 42.12 127.38 42.8667 126.127 44.36C124.873 45.8267 124.247 47.7867 124.247 50.24C124.247 53.3067 124.993 55.6 126.487 57.12C128.007 58.64 129.753 59.4 131.727 59.4C133.727 59.4 135.353 59 136.607 58.2C136.793 58.0667 136.967 58 137.127 58C137.287 58 137.42 58.0533 137.527 58.16C137.66 58.2667 137.727 58.4267 137.727 58.64C137.727 58.8267 137.62 59.0267 137.407 59.24C135.94 60.7067 133.753 61.44 130.847 61.44C127.967 61.44 125.553 60.52 123.607 58.68C121.687 56.8133 120.727 54.1333 120.727 50.64C120.727 47.8933 121.687 45.5333 123.607 43.56C125.553 41.56 127.94 40.56 130.767 40.56C132.713 40.56 134.34 40.8667 135.647 41.48C136.953 42.0667 137.607 42.7067 137.607 43.4V46.88ZM151.902 40.56C154.969 40.56 157.409 41.52 159.222 43.44C161.062 45.36 161.982 47.8933 161.982 51.04C161.982 54.16 161.076 56.68 159.262 58.6C157.449 60.4933 154.982 61.44 151.862 61.44C148.769 61.44 146.302 60.48 144.462 58.56C142.649 56.64 141.742 54.1333 141.742 51.04C141.742 47.9467 142.676 45.4267 144.542 43.48C146.409 41.5333 148.862 40.56 151.902 40.56ZM157.182 45.44C156.729 44.4267 156.049 43.6267 155.142 43.04C154.262 42.4267 153.182 42.12 151.902 42.12C149.689 42.12 148.036 42.8533 146.942 44.32C145.849 45.7867 145.302 47.7067 145.302 50.08C145.302 52.5333 145.729 54.7067 146.582 56.6C147.036 57.5867 147.702 58.3867 148.582 59C149.489 59.5867 150.556 59.88 151.782 59.88C154.049 59.88 155.716 59.1467 156.782 57.68C157.876 56.2133 158.422 54.2667 158.422 51.84C158.422 49.4133 158.009 47.28 157.182 45.44ZM170.72 40.56C171.147 40.56 171.36 40.8667 171.36 41.48V43.24C171.36 43.3733 171.4 43.44 171.48 43.44C171.587 43.44 171.72 43.36 171.88 43.2C173.507 41.44 175.28 40.56 177.2 40.56C178.64 40.56 179.813 40.8267 180.72 41.36C181.653 41.8667 182.4 42.72 182.96 43.92C183.04 44.08 183.12 44.16 183.2 44.16C183.28 44.16 183.373 44.0667 183.48 43.88C185.107 41.6667 187.147 40.56 189.6 40.56C191.653 40.56 193.253 41.2 194.4 42.48C195.547 43.76 196.12 45.6133 196.12 48.04V58.36C196.12 58.84 196.307 59.2267 196.68 59.52C197.08 59.7867 197.547 59.9467 198.08 60L199.16 60.08C199.48 60.1067 199.64 60.2933 199.64 60.64C199.64 60.9867 199.44 61.16 199.04 61.16L194.76 61L191.12 61.16C190.72 61.16 190.52 60.9867 190.52 60.64C190.52 60.2933 190.68 60.1067 191 60.08L191.52 60C192.507 59.84 193 59.2933 193 58.36V47.48C193 44.1467 191.573 42.48 188.72 42.48C187.387 42.48 186.227 43.1333 185.24 44.44C184.253 45.72 183.76 47.04 183.76 48.4V58.28C183.76 59.32 184.227 59.8933 185.16 60L185.84 60.08C186.133 60.1067 186.28 60.2933 186.28 60.64C186.28 60.9867 186.107 61.16 185.76 61.16L182.24 61L178.72 61.16C178.32 61.16 178.12 61 178.12 60.68C178.12 60.3333 178.28 60.1333 178.6 60.08L179.2 60C180.16 59.8667 180.64 59.32 180.64 58.36V47.48C180.64 44.1467 179.227 42.48 176.4 42.48C175.12 42.48 173.96 43.1067 172.92 44.36C171.88 45.6133 171.36 46.96 171.36 48.4V58.36C171.36 59.32 171.893 59.8667 172.96 60L173.64 60.08C173.96 60.1067 174.12 60.2933 174.12 60.64C174.12 60.9867 173.92 61.16 173.52 61.16L169.72 61L165.4 61.16C165 61.16 164.8 60.9867 164.8 60.64C164.8 60.2933 164.96 60.1067 165.28 60.08L166.4 60C166.933 59.9467 167.373 59.7867 167.72 59.52C168.067 59.2267 168.24 58.84 168.24 58.36V43.72C168.24 43.1867 168.12 42.8267 167.88 42.64C167.667 42.4267 167.307 42.32 166.8 42.32H165.44C165.093 42.32 164.92 42.1467 164.92 41.8C164.92 41.4533 165.093 41.2533 165.44 41.2L170.64 40.56C170.667 40.56 170.693 40.56 170.72 40.56Z" fill="#020202"/>
<line x1="56" y1="51.5" x2="101" y2="51.5" stroke="black"/>
<line x1="209" y1="51.5" x2="254" y2="51.5" stroke="black"/>
</svg>
